<svg version="1.1" id="Ebene_1" xmlns="http://www.w3.org/2000/svg" width="210" height="210"><path fill="transparent" stroke="#ccc" stroke-width=".75" d="M205.5 105.233c0 55.104-44.673 99.777-99.78 99.777S5.937 160.338 5.937 105.233c0-55.107 44.675-99.78 99.783-99.78s99.78 44.673 99.78 99.78z"/><path fill="#ccc" d="M98.171 199.174c-.505-.076-.938-.322-.969-.537-.027-.22-.063-.552-.085-.742-.054-.464-2.39-2.51-3.923-3.438-.774-.464-1.394-1.177-1.648-1.89-.229-.63-.537-1.147-.684-1.147-.144 0-.261-.215-.261-.479 0-.267-.317-.701-.703-.977-.383-.267-.603-.649-.481-.845.137-.22.022-.278-.298-.159-.378.149-.515-.02-.515-.607 0-.508-.574-1.404-1.536-2.415-1.587-1.647-2.268-3.672-1.55-4.585.183-.229.427-.825.549-1.325.12-.498.667-1.24 1.211-1.646 1.182-.872 1.216-1.194.293-2.757-.386-.654-.613-1.413-.503-1.699.107-.278-.422-1.782-1.179-3.33-1.021-2.104-1.848-3.257-3.242-4.531-1.682-1.533-3.369-3.853-3.369-4.636 0-.159.227-.298.5-.298.339 0 .503-.347.51-1.079.007-.596.229-1.372.5-1.729.869-1.152.356-3.514-.566-2.598-.227.231-.605.415-.847.415-.613 0-.537-.977.098-1.219.964-.371-.237-.769-2.358-.778-1.099-.005-2.166-.122-2.371-.254-.205-.14-.769-1.025-1.245-1.976-.762-1.511-1.038-1.763-2.129-1.968-1.675-.314-3.73-.31-6.741.013-2.341.254-2.605.212-4.163-.623-1.289-.688-2.307-.933-4.495-1.076-3.24-.218-3.511-.389-6.421-4.102-.935-1.189-2.383-2.791-3.215-3.564-.994-.923-1.389-1.492-1.145-1.665.596-.415.144-2.254-.82-3.338-.486-.547-1.074-1.274-1.304-1.616-.232-.349-.725-1.081-1.096-1.626-.5-.742-.61-1.255-.432-1.997.134-.552.256-1.745.264-2.661.012-1.062.21-1.841.547-2.163.701-.664 1.389-2.329.964-2.329-.178 0-.325-.449-.325-1.001 0-.547.129-.996.288-.996s.271.262.251.581c-.09 1.309.574.806.696-.529.09-.965.017-1.375-.217-1.226-.444.271-.449.344.146-2.485.405-1.932.764-2.679 1.917-4.017.779-.905 1.677-1.726 1.997-1.828.322-.103.581-.405.581-.679 0-.884 1.011-2.049 1.943-2.234.518-.104 1.116-.554 1.372-1.03.354-.659.627-.803 1.23-.654.481.125.784.052.784-.186 0-.21.186-.354.415-.314.229.036.642-.029.916-.146.273-.115.891-.35 1.367-.525.669-.244.916-.615 1.077-1.597.281-1.77 2.28-3.804 4.25-4.326 1.868-.493 3.262-2.219 3.032-3.762-.1-.691-.334-.999-.757-.999-.334 0-.698-.151-.811-.332-.115-.183-.496-.334-.854-.334-.767 0-.796-.269-.134-1.15.313-.413.42-1.021.298-1.67-.151-.813.017-1.289.825-2.305 1.057-1.328 1.687-3.044 1.692-4.595.002-.776.195-.955 1.367-1.272 1.133-.303 1.462-.278 1.938.154.317.286.798.52 1.067.52.271 0 .637.151.818.33.178.178 1.072.554 1.98.83 1.587.483 1.68.476 2.227-.181.315-.378.671-1.204.786-1.831.251-1.333-.083-3.469-.542-3.469-.173 0-.317-.208-.317-.466 0-.256-.225-.549-.5-.657-.291-.112-.498-.61-.498-1.199 0-.952.073-1.008 1.304-1.008.72 0 1.389.188 1.497.417.105.229.098.054-.012-.383-.159-.63-.09-.757.315-.601.283.11.576.02.657-.2.095-.273.352-.212.818.205.645.571.745.574 1.963.039l1.284-.566-1.167-.291c-.64-.159-2.288-.347-3.662-.42-1.375-.068-2.761-.144-3.079-.161-.903-.054-.686-.593.33-.82.505-.112 1.216-.437 1.584-.72.54-.42.576-.569.2-.803-.613-.376-.217-1.35.552-1.35.444 0 .603-.247.593-.913-.01-.803.103-.903.901-.818.811.083.911-.012.879-.833-.022-.566-.098-.701-.19-.349-.083.322-.381.581-.662.581-.315 0-.439-.188-.325-.493.159-.413.083-.427-.464-.085-.359.227-.654.723-.654 1.108 0 .383-.261.928-.583 1.208-.674.588-3.445 1.064-4.414.757-.991-.315-.874-1.748.181-2.231.503-.227.776-.569.671-.84-.261-.679.82-2.153 1.414-1.929.271.107.771-.054 1.104-.359.352-.317.94-.481 1.404-.393.535.103.925-.054 1.182-.459.237-.378.254-.61.046-.61-.591 0-.361-.664.249-.703.554-.039.554-.046 0-.19-.784-.205-.735-.571.203-1.584.806-.872 1.877-1.14 1.877-.474 0 .264.144.256.483-.029.266-.22.652-.3.854-.173.2.125.664-.039 1.021-.364.52-.471.735-.505 1.06-.176.327.327.183.615-.676 1.389-.935.842-.994.977-.417.977.884 0 .884 1.038 0 1.833-.771.698-.684 1.829.371 4.749.723 2.014.837 4.272.217 4.49-.229.083-.317.256-.198.386.371.403 2.126-.71 3.071-1.956.818-1.072 1.057-1.184 2.532-1.184 1.797 0 1.853-.071 2.17-2.627.249-1.982.527-2.38 2.024-2.893.994-.344 1.34-.352 1.538-.042.149.234.259-.049.259-.679.007-1.194-.469-1.382-1.511-.591-.356.269-1.096.493-1.648.498-1.484.015-1.936-.93-1.65-3.44.31-2.695.833-3.625 2.463-4.358.747-.337 1.355-.73 1.355-.872 0-.146.527-.454 1.172-.684.789-.286 1.56-.986 2.356-2.144.654-.945 1.548-1.912 1.992-2.146.442-.242.745-.493.669-.571-.076-.076-.464.039-.862.251s-.803.308-.901.21c-.264-.266 1.899-2.17 3.293-2.893.674-.349 1.316-.786 1.433-.972.115-.188.649-.342 1.189-.342.537 0 .979-.12.979-.264 0-.393 1.987-.991 3.379-1.018.85-.017 1.478.222 2.098.798.488.452 1.104.818 1.367.818.266 0 .483.151.483.334s.295.332.659.332c1.179 0 4.927 1.733 5.313 2.458.217.398.739.723 1.221.752.776.046.798.005.319-.525-.285-.317-.52-.825-.52-1.13 0-.308-.154-.559-.335-.559-.183 0-.334-.239-.334-.535 0-.413.249-.503 1.084-.381.593.081 1.343.261 1.66.4.427.186.891-.103 1.797-1.106.788-.881 1.613-1.433 2.336-1.57 2.137-.398.887-1.802-1.382-1.548-.891.1-1.753-.032-2.419-.378-.877-.452-1.067-.776-1.235-2.117-.11-.869-.286-1.956-.389-2.412-.405-1.829-.222-2.761.672-3.411.48-.352.879-.862.879-1.135 0-.295.236-.449.581-.378.456.09.554.371.454 1.274-.073.635-.146 2.253-.159 3.601-.026 2.158.059 2.522.723 3.059.991.801 3.892 1.345 5.562 1.042l1.333-.244-.918-.796c-.503-.442-.913-1.099-.913-1.465s-.21-.898-.464-1.189c-.256-.288-.571-1.033-.703-1.653-.229-1.082-.205-1.116.608-.913.737.183.859.095.952-.698l.104-.913.747.808c.608.652.75.701.75.244 0-.308-.164-.562-.369-.562-.217 0-.308-.347-.212-.833.085-.457.041-.833-.101-.833-.144 0-.354-.635-.471-1.414-.428-2.817-.557-3.176-1.196-3.345-.913-.239-.83-1.226.103-1.24.728-.012.729-.022.08-.386-.363-.208-.776-.542-.908-.74-.168-.251-.246-.254-.251-.007-.005.195-.965.547-2.134.779-2.244.447-2.964.293-3.89-.837-.437-.527-.383-.557.664-.352.789.159 1.382.066 1.946-.303.483-.317 1.128-.452 1.611-.33.476.12.801.054.801-.156 0-.237.5-.286 1.45-.144 1.154.171 1.491.11 1.655-.31.251-.659 1.242-.671 3.301-.046 1.535.469 1.582.461 1.582-.217 0-.383.261-.891.583-1.138.53-.403.503-.444-.313-.454-1.064-.012-1.304-.305-1.047-1.287.153-.583.444-.728 1.564-.747.757-.017 1.189-.103.962-.195a.726.726 0 0 1-.417-.63c0-1.201-3.418-2.153-4.578-1.277-1.179.894-3.413.332-3.413-.859 0-.352-.148-.728-.332-.84-.598-.369-.352-1.165.366-1.165.418 0 .767.266.872.664.095.364.332.667.524.667.193 0 .623.249.952.547.562.505.62.505.813 0 .114-.298.417-.547.674-.547.552 0 .612-.532.103-.85-.2-.122-.288-.5-.2-.837.114-.439-.166-.808-.972-1.284-1.138-.671-1.487-1.34-.716-1.37.679-.027-2.473-1.545-3.742-1.809-.643-.132-2.815-1.035-4.829-2.007-2.017-.972-4.002-1.865-4.414-1.987-.843-.247-1.016-.84-.252-.84.273 0 .501-.151.501-.332 0-.183.225-.332.498-.332.275 0 .498.149.498.332 0 .181.412.334.918.334.5.002 1.364.239 1.914.53 1.343.706 4.494 1.042 4.494.479 0-.261.22-.332.584-.19.319.122 2.305.588 4.411 1.04 2.104.447 4.129.955 4.495 1.125 1.638.769 3.296 1.34 3.887 1.34.354 0 1.086.229 1.623.508.884.457.981.457.981 0 0-.278.154-.508.337-.508.181 0 .332.227.332.498 0 .273.262.5.586.5.325 0 1.409.313 2.415.696 1.003.381 2.358.806 3.01.942 1.333.273 4.642 1.982 4.642 2.4 0 .378-3.794-.464-6.824-1.516-.366-.129-.104.112.579.535s1.247.959 1.247 1.189c.003.227.159.415.345.415s.977.579 1.748 1.292c.773.713 2.98 2.231 4.904 3.372 1.924 1.143 3.965 2.522 4.541 3.064.659.623 1.128.852 1.268.625.324-.525-.088-1.03-.659-.811-.462.176-.54.054-.62-.967-.018-.229-.262-.591-.532-.803-.999-.779-.022-.796 2.212-.049 2.326.781 3.015 1.25 2.402 1.626-.203.129-.115.3.215.43.308.117.7.125.874.017.176-.11.524-.027.781.183.256.215.925.398 1.489.413.744.024 1.001.176.938.564-.054.347.163.535.637.542.864.012 4.106 2.649 4.106 3.337 0 .676-.462.593-1.196-.217-.347-.383-.93-.84-1.299-1.016-.788-.376 1.15 1.416 4.063 3.752 1.193.957 2.495 2.39 3.074 3.389 1.042 1.78 5.053 6.079 7.045 7.549l1.126.833-1.25-1.709c-1.302-1.782-1.448-2.119-.938-2.119.439 0 6.164 7.622 5.91 7.871-.117.115-.439.02-.718-.212-.71-.591-.63-.251.159.659.656.762.856 1.331.464 1.331-.112 0-.975-.823-1.919-1.829-.945-1.003-1.855-1.829-2.02-1.829-.166 0-.598-.261-.959-.581-.647-.574-.647-.571-.101.498.361.701.42 1.079.176 1.079-.207 0-.288.237-.181.518.13.337.066.437-.178.281-.767-.469.088.515 1.018 1.174l.942.674-.114-.991c-.184-1.587.449-1.147 1.572 1.094 1.338 2.671 1.657 3.071 1.989 2.532.179-.286.755.134 1.863 1.357 1.807 1.987 2.676 3.281 4.165 6.177.566 1.096 1.343 2.322 1.73 2.717 1.172 1.194 1.556 1.738 2.056 2.939.635 1.511.625 2.292-.029 2.041-.391-.151-.439-.063-.197.381.439.828 1.706 7 1.706 8.315 0 .613.325 1.816.723 2.676.809 1.753 1.243 5.054.664 5.054-.197 0-.527-.635-.728-1.414-.598-2.314-.713-2.637-.874-2.471-.085.085.062 1.318.335 2.747.449 2.373.612 2.708 1.953 3.948 1.88 1.736 2.451 3.765 2.749 9.756.19 3.872.156 4.409-.306 4.409a.514.514 0 0 1-.522-.498.5.5 0 0 0-.495-.5.5.5 0 0 1-.498-.496c0-.747-.589-.603-.845.203-.273.862.122 4.29.493 4.29.151 0 .368.64.485 1.418.154 1.003.425 1.521.923 1.748 1.478.679 2.241 6.807 1.473 11.8-.269 1.733-.649 3.205-.845 3.273-.195.062-.356.332-.356.586 0 .262-.151.474-.335.474-.183 0-.332-.227-.332-.503 0-.63-1.374-3.618-1.733-3.77-.437-.183-.3-.786.271-1.203.474-.347.437-.457-.335-.96-1.104-.725-1.12-1.865-.049-2.871.691-.649.908-.703 1.341-.347.285.237.61.337.728.22.337-.339-.928-4.541-1.367-4.541-.229 0-.647-1.105-.977-2.578-.994-4.455-1.277-5.52-1.992-7.57l-.703-1.997-.342 1.804c-.33 1.716-1.023 2.59-1.302 1.636-.07-.244-.303-1.082-.513-1.858-.212-.779-.51-1.414-.661-1.414-.156 0-.853-.525-1.553-1.165-.698-.645-1.355-1.165-1.455-1.16-.352.01-2.349 4.729-2.349 5.544 0 .447-.21 1.514-.464 2.375-.552 1.863-1.263 5.906-1.229 6.997.013.428-.337 1.526-.776 2.446-.739 1.546-.767 1.756-.324 2.806.259.627.49 1.846.508 2.712.041 1.88.513 3.636 1.076 3.984.833.513 1.873 2.383 1.873 3.367 0 1.265-.594 2.609-1.268 2.866-.679.261-1.006-.325-1.271-2.259-.239-1.765-.664-1.704-1.274.186-.269.825-.54 1.084-1.155 1.084-.637 0-1.001-.378-1.75-1.831-.521-1.003-1.094-1.88-1.279-1.938-.186-.063-.703-.886-1.152-1.831-.449-.944-1.182-2.104-1.621-2.575-.439-.469-.901-1.182-1.03-1.58-.127-.397-.383-.725-.574-.725-.189 0-.268-.205-.17-.459s-.184-.994-.631-1.646c-.443-.652-.803-1.336-.803-1.519 0-.186-.545-.264-1.26-.179-.845.103-1.682-.065-2.563-.518-.723-.368-1.509-.671-1.743-.671s-.43-.213-.43-.472c0-.261-.459-.573-1.021-.695-.562-.125-1.101-.439-1.201-.701-.103-.261-.483-.64-.85-.832-.524-.278-.859-.223-1.543.275-.48.347-1.403.845-2.041 1.099-.642.262-1.457.737-1.816 1.072-.361.329-.808.542-.998.474-.193-.066-1.023.075-1.844.322-1.865.562-3.737.581-4.263.056-.586-.583-.529.518.088 1.707.562 1.089 1.25 1.433 2.313 1.167.461-.117 1.228.095 2.002.552 1.169.686 1.24.817 1.042 1.934a140.99 140.99 0 0 0-.397 2.446c-.115.757-.371 1.247-.654 1.247-.313 0-.467.405-.467 1.253 0 .889-.188 1.369-.664 1.667-.366.228-.669.728-.669 1.106 0 .42-.269.767-.681.874-.413.107-.757.547-.869 1.105-.115.579-.457.996-.896 1.111-1.108.283-3.154 2.131-3.271 2.956-.065.462-.737 1.155-1.77 1.831-.916.601-2.021 1.419-2.451 1.819-.996.92-4.082 2.915-4.512 2.915-.181 0-.732.388-1.229.864-.549.529-1.325.884-1.989.915-.977.047-1.167-.103-1.844-1.445-.942-1.875-1.184-2.575-1.299-3.796-.063-.677-.603-1.436-1.77-2.498-.923-.842-1.763-1.836-1.87-2.219-.105-.381-.679-.901-1.27-1.165-.838-.368-1.182-.808-1.536-1.97-.767-2.513-1.44-3.667-2.275-3.875-.432-.112-1.011-.63-1.284-1.159-.275-.527-.625-.96-.783-.96-.156 0-.379-.337-.491-.747-.356-1.279-2.319-3.306-2.964-3.059-.313.119-.568.444-.568.723 0 .64 1.726 3.672 2.656 4.668.388.412.622.886.52 1.052-.244.396.14 1.357.545 1.357.935 0 2.136 2.031 2.456 4.16.176 1.185.432 1.624 1.191 2.073.532.314 1.294 1.25 1.687 2.077.396.825.882 1.616 1.079 1.748.239.166.225.247-.054.249-.222.003-.317.232-.212.506.254.656.786.64.786-.024 0-.35.244-.488.747-.415.493.068.749.334.749.773 0 .41.537 1.023 1.409 1.609 2.109 1.406 3.281 2.612 3.535 3.623.363 1.475 1.318 1.75 3.146.923.862-.391 1.79-.853 2.063-1.021.273-.171.725-.403.996-.513 2.165-.862 4.211-1.937 4.431-2.327.146-.256.56-.466.916-.466.485 0 .649.229.649.93 0 .513.186 1.123.415 1.353.334.337.305.483-.154.742-.313.176-.488.527-.391.781.096.252-.153 1.097-.554 1.883-.398.781-1.089 2.38-1.526 3.555-1.255 3.332-2.866 5.534-7.233 9.88-6.035 6.014-9.212 9.829-8.184 9.829.52 0 .352 1.274-.184 1.392-.435.093-.439.22-.029 1.006.535 1.025.513 1.641-.085 2.363-.562.674-.164 2.124.637 2.329.571.151.633.472.586 3.11l-.054 2.944-1.372 1.328c-.778.757-2.119 1.597-3.091 1.943-.947.332-1.906.83-2.134 1.102-.229.273-.991.791-1.701 1.152-1.416.728-1.849 1.408-1.302 2.065.423.513.135 2.744-.41 3.176-.205.159-1.14.542-2.075.845-1.431.469-1.794.762-2.275 1.821-.571 1.27-.681 1.353-5.285 3.784-2.82 1.492-4.676 1.851-10.379 2.015-2.934.082-5.744.085-6.247.002zm26.116-22.698c-.276-.698-.659 1.204-.43 2.134.129.513.22.41.402-.469.131-.625.142-1.374.028-1.665zm-7.054-4.649c0-.161-.31-.376-.686-.474-.562-.146-.613-.093-.291.293.44.531.977.63.977.181zm4.8-7.69c.682 0 1.626-1.255 1.396-1.855-.156-.41-.439-.485-1.12-.317-.501.122-.965.364-1.021.532-.063.171-.308.308-.55.308-.236 0-.495.447-.573.989-.12.793-.018.998.544 1.079.379.054.737-.088.796-.317a.581.581 0 0 1 .528-.419zm80.752-44.38c-.317-.293-.364-.239-.195.232.117.334.234.861.259 1.164.029.306.114.2.195-.231.083-.433-.037-.957-.259-1.165zm-.315-1.045c0-.637-.207-.637-.451 0-.107.276-.052.501.129.501.178 0 .322-.225.322-.501zm-51.936-2.451c.005-.469.052-.476.317-.049.418.659.735.306 1.997-2.241.566-1.147 1.177-2.08 1.353-2.08s.32-.186.313-.415c-.007-.231-.388.015-.854.542-1.062 1.204-3.179 1.541-4.719.745-.569-.293-1.265-.444-1.546-.337-.498.188-2.861-1.938-2.861-2.576 0-.158-.158-.288-.354-.288s-.259-.148-.146-.332c.112-.183.046-.332-.149-.332-.192 0-.356.335-.358.747-.005.605-.066.654-.327.249-.278-.43-.325-.425-.33.057-.002.305-.19.637-.42.737-.285.122-.181.354.335.732.41.303.747.754.747 1.001 0 .251.21.366.476.264.281-.11.713.195 1.077.759.332.518.827 1.141 1.105 1.385.276.241.342.361.145.261-.198-.095-.364.018-.364.257 0 .234.215.427.472.427.317 0 .422-.261.324-.783-.129-.672-.049-.752.555-.569.9.273.842.205 1.188 1.401.203.713.171 1.074-.095 1.189-.273.112-.252.254.083.485.604.412 2.026-.452 2.036-1.236zm-50.947-5.036c.146-1.304.313-1.57 1.331-2.078 1.511-.752 2.839-.739 3.616.039.342.342 1.201.73 1.917.862.71.134 1.442.361 1.626.505.183.146.856.347 1.499.452.64.103 1.916.327 2.829.5 1.424.264 1.8.22 2.557-.319.928-.662 2.593-.82 4.619-.452 1.533.281 1.738.01 2.617-3.522.866-3.481.654-5.398-.62-5.579-.454-.063-.903.1-1.069.391-.43.764-2.21 1.047-2.884.459-.884-.776-2.056-1.038-2.056-.461 0 .957-1.748 1.187-2.598.339-.513-.513-.566-.498-.734.225-.184.789-.996 1.345-.996.686 0-.2-.311-.674-.691-1.052-.378-.378-.603-.913-.5-1.189.142-.369.024-.442-.474-.281-.474.151-.662.056-.662-.332 0-.295.149-.449.332-.337.181.112.332.049.332-.146s-.229-.354-.515-.354c-.4 0-.496-.334-.438-1.492.044-.82-.024-1.594-.151-1.719-.129-.129-.231-.054-.231.159s-.225.386-.496.386a.499.499 0 0 1-.498-.498c0-.271.149-.498.332-.498.184 0 .332-.249.332-.552 0-.439-.127-.398-.654.208-.366.415-1.125.852-1.697.969l-1.038.212.864.93c.488.527 1.03.828 1.248.696.21-.132.295-.095.188.076s.41.967 1.147 1.768c1.15 1.243 1.265 1.494.801 1.753-.298.164-.454.442-.349.613.107.171.054.313-.122.313s-.405-.222-.508-.493c-.107-.281-.41-.408-.701-.295-.363.139-.513-.012-.513-.515 0-.854-.947-1.311-1.36-.657-.159.256-.295.876-.3 1.379 0 .503-.154.913-.337.913-.181 0-.332-.117-.332-.261 0-.142-.449-.43-.996-.635-.674-.254-1.001-.605-1.001-1.072 0-.383-.215-.696-.479-.696-.693 0-1.013-.691-.479-1.03.334-.208.347-.291.044-.293-.229-.002-.415-.298-.415-.652 0-.356-.154-.74-.339-.854-.63-.391-1.306-2.512-1.111-3.489.156-.767.007-1.138-.71-1.802-.493-.459-1.411-1.003-2.034-1.211-.623-.203-1.133-.532-1.133-.725 0-.19-.337-.676-.747-1.082-1.238-1.201-1.919-2.153-1.919-2.678 0-.757-.652-.586-.977.256-.222.579-.107.94.513 1.599.437.469.796 1.086.796 1.37 0 .803 1.304 2.273 2.024 2.273.352 0 .64.198.64.435 0 .242.679.911 1.501 1.494 1.519 1.072 1.733 1.509 1.174 2.395-.264.42-.42.378-1.013-.259-.386-.413-.854-.657-1.042-.54-.232.142-.225.327.02.571.198.2.364.618.364.928 0 .786-1.685 2.632-2.405 2.632-.437 0-.591.261-.591.999 0 1.106-.627 1.321-1.45.498-.276-.276-.601-.498-.723-.498-.508 0-2.156-1.411-2.156-1.848 0-.591 1.597-1.016 2.061-.552.417.415 2.661.12 3.02-.398.403-.579-.044-1.855-.92-2.639-1.804-1.609-2.561-2.219-2.771-2.227-.125-.005-.664-.603-1.201-1.331-.537-.73-1.174-1.323-1.414-1.323s-.437-.151-.437-.334.159-.332.359-.332c.483 0 .017-1.396-.625-1.865-.383-.278-.762-.244-1.533.139-1.963.974-2.188 1.062-2.637 1.062-.249 0-.93-.239-1.516-.53-1.301-.649-2.034-.417-2.034.647 0 .959-.4 1.313-2.163 1.921-1.755.603-3.564 2.224-3.323 2.974.198.625-1.689 2.771-2.173 2.473-.154-.095-.503.054-.781.332-.574.574-1.477.64-2.659.188-1.099-.417-2.222-.081-2.222.667 0 .74.322.959 1.553 1.052.52.039 1.13.251 1.357.469.273.269.713.305 1.331.115 3.64-1.125 4.451-1.162 10.742-.449a32.42 32.42 0 0 0 3.594.173c1.233-.024 1.816.107 1.941.435.1.261.393.391.654.291.315-.122.471.051.471.53 0 .391-.22.793-.486.894-.381.151-.405.339-.115.906.981 1.907.994 1.97.547 2.256a2.252 2.252 0 0 1-.991.288c-.3 0-.637.239-.75.522-.112.298-.056.43.137.308.181-.112.835.332 1.45.984.62.656 1.443 1.187 1.846 1.187 1.328 0 3.691 1.291 3.691 2.014 0 .42.339.794.913 1.016.505.193 1.592.698 2.415 1.121 2.074 1.073 2.45.961 2.65-.821zm6.556-6.231c-.528-.078-.877-.313-.804-.532.149-.449.198-.452 2.322-.09 2.937.507 1.53 1.084-1.518.622zm11.754-.112c0-.481.872-1.326 1.116-1.082.107.107.573-.054 1.04-.359.866-.569 1.152-.313.441.396-.22.22-.266.398-.103.398.161 0 .008.222-.349.491-.755.571-2.145.671-2.145.156zm-7.778-.813c.249-.637.457-.637.457 0 0 .276-.146.5-.322.5-.179 0-.239-.222-.135-.5zm-17.859-1.165c0-.425.237-.425.5 0 .112.186.046.332-.149.332-.192 0-.351-.144-.351-.332zm-7.031-6.213c-.022-.154-.01-.422.029-.605s.066-.95.066-1.709c0-1.067.122-1.362.549-1.328.43.034.525-.217.447-1.184-.076-.957.051-1.301.593-1.592.601-.325.684-.276.664.391a5.004 5.004 0 0 1-.286 1.423c-.149.366-.142.999.01 1.406.21.562-.112 2.49-.496 2.964-.197.241-1.547.439-1.576.234zm-7.441-2.085c-.293-.474.081-1.016.698-1.016.288 0 .459.232.393.554-.127.669-.791.948-1.091.462zm1.821-.664c0-.193.151-.352.334-.352.425 0 .425.234 0 .498-.185.113-.334.047-.334-.146zm27.673 6.54c-.273-.271-.368-.234-.368.139 0 .664.446 1.111.61.613.071-.21-.039-.549-.242-.752zm37.027-4.648c.488-.359.513-.564.156-1.499-.227-.593-.527-1.079-.671-1.079-.145 0-.262-.19-.262-.422 0-.234-.3-.981-.666-1.663s-.667-1.448-.667-1.704c0-.251-.227-.645-.498-.874-.275-.227-.5-.769-.5-1.204 0-.574-.186-.789-.682-.789-.371 0-1.055-.376-1.509-.833-.461-.459-.969-.833-1.128-.833-.161 0-.568-.347-.9-.769-.815-1.03-1.631-1.299-2.129-.696-.303.361-.315.681-.054 1.228.195.403.444 1.108.549 1.567.103.457.301.986.442 1.172.522.706 3.853 3.154 4.289 3.154.252 0 .457.225.457.498s-.232.5-.518.5c-.418 0-.493.364-.415 1.912.09 1.758.168 1.926.933 2.026.459.061.977.251 1.147.415.461.445 1.964.381 2.626-.107zm-32.071-.913c0-.183-.236-.334-.518-.334-.285 0-.43.151-.314.334.266.43.832.43.832 0zm4.253-2.127c1.328-.85 4.404-1.438 4.404-.842 0 .19.156.251.347.132s.569-.034.833.188c.273.225 1.45.4 2.668.4 1.807 0 2.317-.127 2.981-.752.998-.935.703-1.638-1.077-2.573a524.125 524.125 0 0 1-3.091-1.636c-1.963-1.045-2.656-1.057-4.048-.071-1.079.767-1.943.808-1.943.098 0-.293-.31-.613-.693-.713-.474-.125-.642-.374-.529-.801.114-.437-.018-.62-.444-.62-.335 0-.684-.188-.779-.415-.222-.542-1.53 1.021-1.54 1.833-.008.322-.311.842-.679 1.155-.366.317-.664.981-.664 1.494 0 .508-.137.925-.296.925-.562 0-.681 1.482-.186 2.241.703 1.063 3.037 1.044 4.736-.043zm5.84-7.648a.82.82 0 0 0-.171-.806c-.444-.447-1.931.183-1.931.818 0 .598 1.873.586 2.102-.012zM98.068 71.117c.786-.598 1.907-.632 2.461-.076.286.286.486.303.649.059.132-.195.481-.444.784-.557.349-.129.608-.72.718-1.638.095-.791.439-2.219.767-3.176.498-1.453.762-1.775 1.614-1.992.894-.227.779-.278-.981-.427-1.165-.098-2.053-.034-2.134.159-.234.562-.864 1.074-1.611 1.309-.75.237-1.272 1.282-.923 1.848.229.364-.388 1.704-.959 2.083-.2.137-.701.247-1.113.251-.774.005-1.003.474-.415.837.5.31.396.83-.168.83-.273 0-.498-.149-.498-.332s-.374-.332-.833-.332-.833.149-.833.332.225.332.498.332c.276 0 .503.229.503.5-.004.649 1.608.644 2.474-.01zm2.185-4.028c0-.386.227-.894.505-1.125.786-.659.862-.237.146.852-.575.873-.648.905-.651.273zm-6.015.898c.391-.247.403-.447.071-1.077-.242-.464-.332-.52-.225-.151.112.376-.051.801-.403 1.074-.657.494-.193.628.557.154zm11.887-1.189c.288-.75-.518-1.602-1.074-1.138-.352.286-.359.498-.046 1.001.48.77.861.816 1.12.137zm13.105-2.473c0-.452-.588-.747-.798-.405-.2.322.088.72.52.72.154 0 .278-.141.278-.315zm-9.868-1.518c.244-.637.073-.637-.454 0-.241.288-.271.498-.075.498.186.002.422-.222.529-.498zm-6.36-1.624c.276-.405.193-3.865-.093-3.865-.1 0-.637.42-1.196.93-1.318 1.204-1.714 2.634-.891 3.252.628.472 1.753.311 2.18-.317zm10.235.305c0-.425-.94-1.179-1.478-1.179-.339 0-.197.859.213 1.265.552.554 1.265.503 1.265-.086zm-8.135-5.373c1.262-.964 1.497-1.792.5-1.792-.652 0-1.689.815-1.689 1.328 0 .154-.09.52-.2.806-.288.749.076.659 1.389-.342zm10.3-.796c-.112-.181-.459-.322-.769-.31-.462.022-.442.076.103.31.891.386.901.386.666 0zm1.663-1.795c0-.618-.193-.696-1.685-.696-1.509 0-1.673.068-1.558.664.104.547.407.674 1.685.701 1.373.027 1.558-.051 1.558-.669zm65.239-6.152c.101-.159-.029-.469-.285-.681-.384-.317-.439-.264-.29.293.194.754.304.825.575.388zm-53.376-9.778c-.327-.327-.368-.286-.186.186.125.33.311.513.413.41.105-.1 0-.371-.227-.596zm38.916-9.355c0-.066-.261-.33-.581-.581-.527-.413-.539-.4-.124.127.431.551.705.73.705.454zm-23.975-13.67c0-.251-4.118-1.492-4.302-1.294-.202.22-.093.271 2.305 1.118 1.331.472 1.997.53 1.997.176zm-6.763 174.265c-.073-.132-.153-.85-.176-1.597-.036-1.108.145-1.533.97-2.324.881-.84.983-1.123.803-2.188-.239-1.398.542-3.283 1.353-3.283.926 0 3.501-1.414 4.412-2.417 3.669-4.067 3.696-4.092 4.182-3.569.649.686.928 3.2.403 3.638-.228.188-.513.244-.633.127-.122-.122-.22.181-.22.669 0 .49-.151.889-.334.889a.329.329 0 0 0-.332.327c0 .386-2.227 3.984-4.163 6.73-1.013 1.44-1.687 2.029-2.808 2.456-1.691.649-3.261.894-3.457.542zm17.752-8.374c0-.195.148-.354.332-.354.427 0 .427.236 0 .498-.183.113-.332.051-.332-.144zm-78.914-20.63c0-.195.154-.354.334-.354.43 0 .43.236 0 .498-.182.115-.334.051-.334-.144zm-55.837-2.934c-3.701-5.778-8.298-16.208-10.532-23.892-3.555-12.246-4.888-26.235-3.586-37.688.542-4.749 1.133-5.044 1.042-.515-.164 8.376-.103 11.418.244 11.835.203.242.542 1.487.754 2.764.21 1.279.52 2.581.686 2.898.164.317.305 1.294.308 2.163.005.874.212 2.482.464 3.584a45.18 45.18 0 0 1 .671 3.662c.371 2.935 3.105 9.57 4.873 11.841.51.664 1.621 2.648 2.461 4.414.845 1.765 1.663 3.21 1.824 3.21.349 0 .608.625 1.221 2.93.679 2.542.591 3.281-.542 4.69l-1.013 1.26.869 2.632c.964 2.93 1.804 6.128 1.609 6.128-.071-.002-.679-.862-1.353-1.916zm134.416-21.045c.657-.425 1.426-.425 1.167 0-.112.181-.534.332-.935.327-.593-.002-.637-.064-.232-.327zm-19.311-2.193c0-.586.718-.483.923.135.073.217-.104.396-.396.396a.535.535 0 0 1-.527-.531zM34.145 121.52c-.12-.195-.139-.435-.042-.532.237-.239.886.181.886.571.003.427-.573.4-.844-.039zm1.179-1.311c0-.428.237-.428.5 0 .112.181.049.334-.149.334a.345.345 0 0 1-.351-.334zm-1.748-2.151c-.669-.915-.723-1.177-.251-1.177.181 0 .332.174.332.389s.251.666.554 1.001c.303.334.415.601.249.598-.166-.008-.564-.369-.884-.811zm163.477-10.032c-.132-.132-.232-.628-.223-1.097l.022-.861.319.801c.35.869.277 1.553-.118 1.157zm-147.884-1.748c-.144-.232-.168-.51-.059-.62.298-.298.623.142.461.622-.113.337-.192.337-.402-.002zm2.308-.578c.479-.474.945-.786 1.04-.696.261.261-.964 1.564-1.467 1.564-.255-.002-.076-.363.427-.868zm-3.501-.799c0-.181.234-.332.52-.332s.427.151.313.332c-.267.435-.833.435-.833 0zm2.331-7.651c0-.425.237-.425.5 0 .112.183.046.332-.146.332-.195 0-.354-.149-.354-.332zm-4.995-12.646c0-.427.237-.427.5 0 .112.181.049.334-.146.334a.344.344 0 0 1-.354-.334zm-1.843-2.679c-.303-.493-.061-.671.471-.337.288.173.322.347.098.483a.417.417 0 0 1-.569-.146zm-33.064-2.981c0-.457.076-.645.168-.415.09.229.09.603 0 .833-.093.229-.168.044-.168-.418zm.207-3.029c-.247-.645.417-3.623.811-3.623.271 0 .1 1.465-.396 3.315-.161.61-.268.688-.415.308zm3.736-11.944c0-.181.149-.332.332-.332a.334.334 0 0 1 0 .666.334.334 0 0 1-.332-.334zm.996-1.843c0-.415 1.062-2.197 1.213-2.043.181.178-.789 2.227-1.055 2.227-.085-.003-.158-.084-.158-.184zm68.935-2.21c-.005-.313.151-.664.349-.784.583-.364.669.02.151.703-.429.565-.49.572-.5.081zm-67.6-.564c0-.183.151-.425.334-.537.181-.115.332-.059.332.125s-.151.427-.332.54c-.182.112-.334.056-.334-.128zm64.737-3.366c0-.366.198-.669.439-.669.337 0 .359.159.083.669-.447.832-.522.832-.522 0zm-42.974-2.08a2.75 2.75 0 0 1 .325-.833c.166-.266.071-.417-.259-.417-.286 0-.52-.217-.52-.488 0-.315.193-.413.549-.273.554.212.537-.21-.095-2.339-.127-.42.032-.659.515-.784.383-.1.696-.283.696-.408 0-.122.269-.244.605-.266 1.013-.078 3.398-1.233 3.281-1.592-.061-.183-.454-.356-.872-.376-.886-.046-1.409-.725-1.165-1.509.095-.305.017-.654-.173-.771-.193-.12-.347.061-.347.408 0 .342-.22.911-.488 1.267-.764 1.011-.64-.134.156-1.443.916-1.497.84-1.951-.374-2.195-1.636-.327-1.721-.259-.742.581.896.771.901.808.344 1.665-.315.481-.796.874-1.064.874-.271 0-.493.134-.493.295s-.305.374-.679.471c-.369.098-.649.303-.618.457.144.737-.505 2.441-.928 2.441-.264 0-.398.132-.3.288.098.159.591.222 1.099.146.845-.134.876-.103.344.33-.32.259-.583.662-.583.889 0 .52-1.594.171-2.358-.515-.286-.259-.781-.471-1.094-.471-.476 0-.505-.115-.19-.706.208-.388.664-.779 1.011-.872.347-.09.632-.305.632-.479 0-.168-.127-.234-.283-.137-.156.095-.454-.195-.659-.647-.205-.454-.505-.82-.671-.82-.503 0-2.039 1.35-1.958 1.721.042.195-.137.432-.393.525-.325.12-.403.002-.261-.371.117-.3.063-.544-.112-.544s-.322-.249-.322-.554c0-.51-.044-.51-.61 0-.334.305-.769.554-.962.554-.195 0-1.089.659-1.985 1.462-1.338 1.201-1.799 1.431-2.568 1.287-.745-.142-1.104.017-1.755.784l-.82.962.586-1.074c.322-.586 1.87-2.788 3.435-4.888C40.1 25.722 61.657 12.079 85.8 7.267c9.414-1.88 20.723-2.659 26.326-1.821 1.616.242 2.596.493 2.173.564-.425.068-.854.337-.954.598-.107.278-.64.471-1.292.471-1.218 0-1.836.525-.903.769.488.129.472.159-.095.19-.374.024-.859.217-1.077.435-.271.269-2.502.422-7.141.483-8.037.11-8.594.171-10.93 1.204-.996.439-2.585.891-3.533 1.003-.95.112-2 .352-2.334.535-.332.181-1.05.425-1.589.542-.728.154-.859.283-.513.496.254.156.583.217.728.127.142-.088.786-.017 1.428.159.701.195 1.24.2 1.355.02.105-.168 0-.305-.229-.305-.264 0-.303-.115-.107-.305.569-.549 2.642-.52 3.445.042.725.508.735.559.154.857-.62.32-2.915.869-5.156 1.226-.908.149-1.267.391-1.409.964-.181.718-.361.771-2.615.771-2.595 0-5.659.708-5.476 1.267.151.457 1.831.63 2.329.239 1.357-1.074 4.749-1.287 4.36-.271-.2.522.745.999 1.04.525.107-.176.483-.32.842-.32.369 0 .647-.229.647-.535 0-.354.181-.469.525-.334.291.11.75.203 1.023.203.432 0 .432.063-.015.508-.811.811-.344 1.37 1.016 1.211.833-.098 1.13-.024.972.234s.249.376 1.299.376 1.587.156 1.721.496c.105.273.4.5.654.5.415 0 .605.408.381.818-.046.083.212.366.571.627.562.41.598.598.261 1.338-.217.469-.762.95-1.208 1.062l-.814.204.718.72c.398.396 1.047.747 1.445.784.398.034 1.189.3 1.758.593.813.42 1.008.715.92 1.379-.061.464-.327.981-.591 1.145-.361.232-.374.305-.044.308.239.002.342.159.229.342-.112.181.029.332.313.332a.51.51 0 0 1 .52.498c0 .271-.205.498-.459.498-.696 0-3.538 1.323-3.538 1.648 0 .159-.337.222-.75.149-.413-.076-.562-.054-.334.056.305.146.32.366.056.864-.198.366-.447.581-.552.476-.105-.103-.359.042-.564.325-.208.281-.645.552-.977.601-.706.103-1.216.811-.994 1.384.134.352-.554.684-1.719.833-.181.024-.542.217-.791.427-.256.208-.669.383-.916.386-.515.005-3.118 2.424-3.118 2.9 0 .168-.32.21-.71.088-.452-.146-.63-.1-.488.122.173.283-2.434.967-3.127.818-2.881-.608-4.036-.649-6.912-.256-1.177.164-1.899.115-2.217-.149-.366-.303-.742-.278-1.667.107-.657.273-1.196.635-1.196.798 0 .161-.466.313-1.038.33-.569.017-2.051.564-3.293 1.213-2.668 1.404-3.167 1.479-2.832.439.132-.413.271-1.226.315-1.809.095-1.355 1.206-2.798 4.275-5.54 2.871-2.571 6.902-4.67 6.902-3.596 0 .156.378.215.842.127.784-.151.798-.193.249-.62-.564-.437-.559-.483.076-.981.366-.288 1.074-.466 1.575-.393.669.095.967-.039 1.108-.486.115-.366 1.343-1.15 2.998-1.926 3.22-1.499 4.514-2.595 4.25-3.604-.144-.537.107-.823 1.179-1.372.747-.381 1.472-.669 1.614-.637.144.032.518-.056.833-.195.371-.161 1.003.015 1.782.493.974.601 1.265.659 1.487.298.613-.991-2.026-1.667-7.588-1.938-.989-.051-.947-.752.115-2.012.642-.764.732-1.021.352-1.021-.278 0-.603.156-.725.349-.144.232-.508.159-1.074-.208-.754-.493-1.125-.515-3.071-.166-1.216.217-2.656.686-3.191 1.04-.54.356-1.248.645-1.58.649-.332 0-.51.151-.398.334.344.554 1.504.371 2.598-.405 1.135-.808 5.01-1.277 5.608-.679.605.605-1.292 2.849-3.247 3.843-1.003.51-1.912 1.147-2.014 1.414s-.396.486-.652.486c-.254 0-.469.186-.474.415-.01.454-2.664 1.914-3.479 1.914-.276 0-.916.479-1.418 1.064-2.122 2.463-2.322 2.595-3.784 2.539l-1.399-.054 1.05-.935c.576-.518 1.05-1.021 1.05-1.123 0-.349-1.44.591-2.485 1.626-.579.571-1.616 1.211-2.305 1.416-.867.259-1.143.264-.896.02.62-.618.388-1.021-.251-.444-1.018.92-1.138.62-.327-.825.422-.757 1.394-1.887 2.156-2.515.764-.627 1.543-1.582 1.731-2.122.2-.564.713-1.121 1.216-1.311 1.123-.427 1.16-.422 1.16.178 0 .696.994 1.028 1.36.454.21-.33.295-.344.3-.046.002.227.168.415.374.415.21 0 .293-.295.193-.684-.129-.493.024-.762.559-.964.403-.154.935-.52 1.182-.813.244-.291.798-.535 1.233-.535.437 0 .789-.134.789-.298 0-.171-.515-.173-1.248-.005-.684.164-1.875.208-2.637.098-1.196-.166-1.606-.046-2.937.872-.852.583-1.648.962-1.772.837-.127-.125.044-.422.374-.667.408-.298.481-.515.229-.671-.593-.366.654-1.548 1.387-1.313.898.286 1.377-.132.806-.701-.264-.264-.62-.479-.793-.479-.176 0-.503-.225-.73-.498-.522-.63-2.239-.637-3.33-.015-.459.261-1.343.708-1.965.996-.625.286-1.765 1.084-2.539 1.768-.776.681-2.036 1.746-2.805 2.363s-1.558 1.47-1.75 1.892-.811.959-1.372 1.194c-.562.232-1.477.82-2.036 1.304-.562.486-1.448 1.106-1.975 1.382-.767.393-.852.535-.417.698.298.117.544.063.544-.115 0-.173.156-.322.352-.322s.903-.374 1.58-.835c.679-.459 1.282-.681 1.343-.498.298.891 3.53-.161 4.802-1.57.32-.354.92-.615 1.331-.579.413.037 1.05-.095 1.414-.293.776-.42 2.878-1.201 3.254-1.208.142-.002.029.347-.251.774-.278.425-.43.854-.33.955.098.098-.352.642-.996 1.211-.649.566-1.179 1.184-1.179 1.37 0 .183-.559.571-1.243.859-1.318.549-2.751 1.721-2.751 2.253 0 .178.669.242 1.572.139 1.34-.151 1.487-.115.989.251-.574.42-3.215 2.793-5.581 5.02-.657.615-1.389 1.719-1.633 2.449-.242.735-.549 1.265-.681 1.184-.137-.083-.427.283-.647.815-.591 1.431-2.488 3.069-2.986 2.573-.3-.295-.342-.259-.186.156.154.393-.071.64-.811.896-.562.195-1.018.588-1.018.872 0 .286-.181.515-.4.515-.295 0-.303.098-.024.376.474.474.176 1.238-.857 2.197-.449.415-.696.757-.552.757s-.142.374-.635.833c-.986.896-1.511 1.052-1.413.403zm-3.638-14.06c.159-.667.125-.886-.098-.667-.181.181-.439.781-.566 1.328-.159.669-.122.889.098.669.183-.183.439-.781.566-1.33zm-.888-.686c.044-.491-.066-.764-.261-.647-.386.242-.449 1.499-.068 1.499.143-.003.292-.384.329-.852zm3.571-3.14c.708-.781.127-.911-.642-.144-.588.586-.654.808-.242.808.157 0 .552-.3.884-.664zm2-2.998c.261-.422-.178-.422-.833 0-.432.276-.422.325.063.33.311.002.655-.145.77-.33zm3.24-2.068c.574-.535.874-1.072.73-1.301-.161-.259-.1-.305.183-.129.286.173.376.11.273-.2-.198-.591-.676-.498-1.099.217-.181.31-.742.984-1.248 1.497-.503.515-.916 1.116-.916 1.335.001.432.331.209 2.077-1.419zm29.389-7.248c-.115-.183-.356-.332-.542-.332-.181 0-.239.149-.127.332s.356.334.54.334.242-.151.129-.334zm13.762-3.987c.479.005.486.049.054.327-.435.281-.43.325.046.327.293.005.715-.205.933-.466.308-.374.259-.51-.249-.674-.876-.278-1.733.105-1.702.764.017.349.088.393.193.132.096-.232.42-.413.725-.41zM76.03 16.72c.281 0 .596-.225.701-.498.259-.669-.071-.627-1.387.171-.649.396-1.001.823-.864 1.047.164.261.359.21.635-.171.224-.302.634-.549.915-.549zm3.742-2.993c.115-.183.059-.334-.127-.334-.183 0-.425.151-.54.334-.115.181-.054.332.129.332s.426-.151.538-.332zm2.832-2.664c0-.183-.225-.334-.498-.334s-.498.151-.498.334c0 .181.225.332.498.332s.498-.151.498-.332zm-7.988 39.09c0-.281-.227-.596-.5-.701-.647-.249-.647-.784 0-.784.273 0 .5-.227.5-.498 0-.276-.159-.5-.356-.5-.193 0-.261-.142-.154-.317s.442-.225.742-.11c.427.164.493.076.313-.403-.261-.676.247-1.152 1.24-1.16.459-.005.574.166.447.659-.134.513-.01.669.544.671.393 0 1.292.156 1.985.352 1.165.325 1.26.439 1.167 1.409-.134 1.379-1.169 1.887-3.85 1.895-1.648-.003-2.078-.11-2.078-.513zm45.835-2.708c-.459-.457-.197-1.108.444-1.108.444 0 .667.222.667.667.001.639-.652.898-1.111.441zm-18.157-9.341c-.208-.391-.376-.942-.376-1.23 0-.283-.151-.52-.334-.52-.391 0-.437-1.316-.061-1.907.151-.237.708-.352 1.326-.273.586.076 1.067.002 1.067-.156 0-.31 2.239-.195 2.566.132.327.322-.647 1.248-1.121 1.064-.613-.234-.564.464.085 1.177.62.686.383 1.274-.488 1.206-.415-.032-.564-.239-.459-.645.269-1.021-.381-.652-1.121.635-.678 1.179-.717 1.199-1.084.517zm-44.751-4.458c.225-.227.491-.327.593-.225s-.078.288-.41.413c-.471.184-.507.145-.183-.188zm69.007-.463c-.612-.735-.264-.82.423-.103.319.337.451.61.29.61-.163 0-.484-.227-.713-.507zm-14.873-.037c-.275-.112-.229-.334.166-.732.394-.398.677-.469.942-.229.21.188.303.474.205.635-.1.161.029.222.283.134.293-.1.425-.535.359-1.206-.103-1.016-.078-1.038.803-.703.657.251.977.242 1.146-.037.168-.276.3-.281.464-.015.127.203.061.369-.145.369s-.28.151-.166.334c.115.181.01.334-.229.337-.317.005-.3.093.062.327.407.264.363.325-.225.33-.394.002-.794-.183-.887-.413-.107-.259-.178-.212-.195.132-.036.8-1.441 1.201-2.583.737zm-60.896-3.408c.1-.161.52-.378.935-.483.728-.181.732-.168.11.293-.718.534-1.326.646-1.045.19zm8.515-3.369c.654-.422 1.096-.422.833 0-.112.181-.457.332-.767.33-.488-.006-.495-.05-.066-.33zm1.665-1.663c0-.181.227-.334.5-.334s.498.154.498.334-.225.334-.498.334c-.275.001-.5-.153-.5-.334zm29.725-5.859c.112-.11.398-.122.64-.027.261.105.186.186-.203.2-.352.017-.547-.063-.437-.173zm-2.232-.454c-.354-.125-.503-.303-.332-.396.442-.244 3.325-.354 3.091-.12-.408.408-2.144.733-2.759.516zm2.224-1.56c-.71-.286-.459-.83.334-.718.41.059.71.259.664.439-.099.405-.441.498-.998.279zm-4.743-.223c0-.105.339-.559.757-1.003.547-.586 1.235-.869 2.458-.999.938-.1 2.095-.281 2.573-.4.647-.164.869-.09.869.271 0 .664-.874 1.362-1.34 1.074-.203-.127-1.072-.122-1.926.012-1.24.193-1.423.295-.891.51.603.244.588.269-.166.295a8.483 8.483 0 0 0-1.582.227c-.416.111-.752.116-.752.013zm31.875-6.101c.225-.09.677-.095.999-.012.324.085.139.159-.41.166-.55.007-.816-.061-.589-.154z"/></svg>